# xmcd
#
# Track frame offsets: 
#        150
#        22290
#        65200
#        93925
#        160455
#        210727
#
# Disc length: 3222 seconds
#
# Revision: 3
# Processed by: cddbd v1.5.2PL0 Copyright (c) Steve Scherf et al.
# Submitted via: ExactAudioCopyFreeDBPlugin 1.0
#
DISCID=570c9406
DTITLE=B.B. King - King Biscuit (Live In New York 1978)
DYEAR=1978
DGENRE=Blues
TTITLE0=Caldonia
TTITLE1=How Blue Can You Get
TTITLE2=B.B. King with Johnny and Edgar Winter - Goin Down Slow
TTITLE3=B.B. King with George Benson - I Got Some Help I Don't Need
TTITLE4=B.B. King with George Benson - Just A Little Love
TTITLE5=The Thrill Is Gone
EXTD=ID3G:   0
EXTT0=
EXTT1=
EXTT2=
EXTT3=
EXTT4=
EXTT5=
PLAYORDER=
